<svg xmlns="http://www.w3.org/2000/svg" viewBox="0 0 1418.83 366.83"><path d="M315.75 12.17 Q314.5 12.17 313.75 13.17 L313.75 13.17 Q313 14.17 313 15.42 L313 32.56 Q313 33.83 312.5 35 L312.5 35 Q312 36.17 312 37.44 L312 83.69 Q312 84.67 312.5 85.5 L312.5 85.5 Q313 86.33 313.97 86.34 L405.53 86.83 Q406.83 86.83 407.83 87.67 L407.83 87.67 Q408.83 88.5 408.83 89.8 L408.17 288.08 Q408.17 289.33 409.17 290.08 L409.17 290.08 Q410.17 290.83 411.42 290.83 L497.08 290.67 Q498.33 290.67 499.08 289.67 L499.08 289.67 Q499.83 288.67 499.83 287.42 L499.83 223.27 Q499.83 222 500.33 220.83 L500.33 220.83 Q500.83 219.67 500.83 218.4 L501 89.8 Q501 88.5 502 87.67 L502 87.67 Q503 86.83 504.3 86.83 L595.86 86.34 Q596.83 86.33 597.33 85.5 L597.33 85.5 Q597.83 84.67 597.83 83.69 L597.67 14.75 Q597.67 13.5 596.67 12.75 L596.67 12.75 Q595.67 12 594.42 12 Z M1406.59 85.11 Q1405.83 80.17 1404.41 75.37 L1404.09 74.29 Q1402.67 69.5 1400.57 64.96 L1398.6 60.7 Q1396.5 56.17 1393.65 52.06 L1390.35 47.28 Q1387.5 43.17 1383.96 39.63 L1382.2 37.87 Q1378.67 34.33 1374.62 31.39 L1371.71 29.27 Q1367.67 26.33 1363.27 23.94 L1360.73 22.56 Q1356.33 20.17 1351.59 18.59 L1333.41 12.57 Q1328.67 11 1323.71 10.35 L1295.62 6.65 Q1290.67 6 1285.67 6 L1271.17 6 Q1266.17 6 1261.2 6.57 L1245.13 8.43 Q1240.17 9 1235.35 10.35 L1212.31 16.82 Q1207.5 18.17 1203.03 20.4 L1195.64 24.1 Q1191.17 26.33 1187.07 29.2 L1185.26 30.47 Q1181.17 33.33 1177.63 36.87 L1171.37 43.13 Q1168.33 46.17 1165.83 49.67 L1165.83 49.67 Q1163.33 53.17 1161.41 57.01 L1158.4 63.03 Q1156.17 67.5 1155.01 72.36 L1152.16 84.3 Q1151 89.17 1151 94.17 L1151 108.67 Q1151 113.67 1152.27 118.5 L1154.9 128.5 Q1156.17 133.33 1158.7 137.65 L1163.8 146.35 Q1166.33 150.67 1169.99 154.08 L1177.51 161.09 Q1181.17 164.5 1185.55 166.91 L1197.12 173.26 Q1201.5 175.67 1206.29 177.12 L1220.38 181.38 Q1225.17 182.83 1230.08 183.78 L1287.92 194.89 Q1292.83 195.83 1297.63 197.25 L1305.87 199.68 Q1310.33 201 1314.5 203.08 L1315.17 203.42 Q1318.67 205.17 1321.67 207.67 L1321.67 207.67 Q1324.67 210.17 1326.39 213.67 L1327.28 215.48 Q1329 219 1329 222.92 L1329 222.92 Q1329 226.83 1327.36 230.39 L1327 231.17 Q1325 235.5 1320.8 237.77 L1319.23 238.62 Q1314.83 241 1309.93 241.98 L1309.74 242.02 Q1304.83 243 1299.83 243 L1281 243 Q1276 243 1271.14 241.84 L1263.36 239.99 Q1258.5 238.83 1254.16 236.34 L1252.67 235.49 Q1248.33 233 1245.59 228.82 L1243.01 224.88 Q1242 223.33 1241.42 221.58 L1241.42 221.58 Q1240.83 219.83 1240.83 217.99 L1240.83 212.42 Q1240.83 211.17 1240.08 210.17 L1240.08 210.17 Q1239.33 209.17 1238.08 209.16 L1158.47 209 Q1157.17 209 1156.33 210 L1156.33 210 Q1155.5 211 1155.56 212.3 L1155.79 217.67 Q1156 222.67 1156.91 227.58 L1157.25 229.42 Q1158.17 234.33 1159.86 239.04 L1160.31 240.29 Q1162 245 1162 250 L1162 279.59 Q1162 280.83 1161.08 281.67 L1161.08 281.67 Q1160.17 282.5 1159.7 281.35 L1157.72 276.47 Q1155.83 271.83 1154.3 267.07 L1072.83 14.2 Q1072.5 13.17 1071.58 12.58 L1071.58 12.58 Q1070.67 12 1069.58 12 L949.53 12.16 Q947.5 12.17 946.33 13.83 L946.33 13.83 Q945.17 15.5 944.46 17.41 L845.9 284.81 Q844.17 289.5 844.07 294.5 L843.86 305.03 Q843.83 306.33 842.83 307.17 L842.83 307.17 Q841.83 308 840.53 308 L837.53 308 Q836 308 834.92 306.92 L834.92 306.92 Q833.83 305.83 833.83 304.3 L833.83 227.42 Q833.83 226.17 833.08 225.17 L833.08 225.17 Q832.33 224.17 831.08 224.17 L706.3 224 Q705 224 704 223.17 L704 223.17 Q703 222.33 703 221.03 L702.84 153.27 Q702.83 152 703.33 150.83 L703.33 150.83 Q703.83 149.67 703.83 148.4 L703.83 68.27 Q703.83 67 704.33 65.83 L704.33 65.83 Q704.83 64.67 704.82 63.4 L704.34 13.97 Q704.33 13 703.5 12.5 L703.5 12.5 Q702.67 12 701.69 12 L614.7 12 Q613.17 12 612.08 13.08 L612.08 13.08 Q611 14.17 611 15.7 L610.5 288.86 Q610.5 289.83 611.33 290.33 L611.33 290.33 Q612.17 290.83 613.14 290.83 L808.3 290.83 Q809.83 290.83 810.92 291.92 L810.92 291.92 Q812 293 812 294.53 L812 304.7 Q812 305.83 811.33 306.75 L811.33 306.75 Q810.67 307.67 809.53 307.67 L124.53 308 Q123 308 121.92 306.92 L121.92 306.92 Q120.83 305.83 121.16 304.34 L121.42 303.17 Q122 300.5 122.96 297.95 L138.29 257.38 Q139 255.5 140.5 254.17 L140.5 254.17 Q142 252.83 144.01 252.83 L243.46 252.83 Q245.83 252.83 247.33 254.67 L247.33 254.67 Q248.83 256.5 249.56 258.75 L258.66 286.76 Q259.17 288.33 260.33 289.5 L260.33 289.5 Q261.5 290.67 263.15 290.67 L355.65 290.83 Q356.67 290.83 357.5 290.25 L357.5 290.25 Q358.33 289.67 358 288.7 L263.88 15.58 Q263.33 14 262 13 L262 13 Q260.67 12 259 12 L140.47 12 Q138.17 12 136.67 13.75 L136.67 13.75 Q135.17 15.5 134.37 17.66 L72.57 184.64 Q70.83 189.33 69.05 194.01 L6.34 358.62 Q6 359.5 6.67 360.17 L6.67 360.17 Q7.33 360.83 8.28 360.83 L1409.13 360.83 Q1410.67 360.83 1411.75 359.75 L1411.75 359.75 Q1412.83 358.67 1412.83 357.13 L1412.83 201.17 Q1412.83 196.17 1411.69 191.3 L1409.81 183.37 Q1408.67 178.5 1406.43 174.03 L1403.74 168.64 Q1401.5 164.17 1398.09 160.51 L1391.08 152.99 Q1387.67 149.33 1383.51 146.56 L1379.83 144.11 Q1375.67 141.33 1371.12 139.26 L1368.88 138.24 Q1364.33 136.17 1359.54 134.75 L1341.46 129.42 Q1336.67 128 1331.74 127.16 L1288.93 119.84 Q1284 119 1279.12 117.92 L1261.88 114.08 Q1257 113 1252.49 110.85 L1246.85 108.15 Q1242.33 106 1240.31 101.43 L1239.58 99.77 Q1237.83 95.83 1238.92 91.67 L1239.5 89.42 Q1240 87.5 1241.08 85.83 L1241.08 85.83 Q1242.17 84.17 1243.89 83.17 L1250.18 79.51 Q1254.5 77 1259.43 76.16 L1268.07 74.68 Q1273 73.83 1278 73.83 L1278.83 73.83 Q1283.83 73.83 1288.77 74.66 L1296.9 76.01 Q1301.83 76.83 1306.35 78.97 L1310.64 81.01 Q1314.5 82.83 1317.17 86.17 L1317.69 86.82 Q1319.83 89.5 1320.92 92.75 L1320.92 92.75 Q1322 96 1322 99.43 L1322 102.42 Q1322 103.67 1322.75 104.67 L1322.75 104.67 Q1323.5 105.67 1324.75 105.67 L1404.13 105.83 Q1405.67 105.83 1406.75 104.75 L1406.75 104.75 Q1407.83 103.67 1407.83 102.13 L1407.83 98.17 Q1407.83 93.17 1407.07 88.22 Z M1004.25 86.67 Q1005.67 85.33 1006.3 87.17 L1007.37 90.27 Q1009 95 1009.47 99.98 L1009.7 102.36 Q1010.17 107.33 1011.94 112.01 L1036.06 175.82 Q1037.83 180.5 1039.17 185.32 L1040.49 190.08 Q1040.83 191.33 1039.83 192.17 L1039.83 192.17 Q1038.83 193 1037.53 193 L972.37 193 Q971 193 970.17 191.92 L970.17 191.92 Q969.33 190.83 969.81 189.55 L996.94 116.02 Q998.67 111.33 999.55 106.41 L1002.49 89.92 Q1002.83 88 1004.25 86.67 Z M195.33 86.42 Q196.67 85.33 197.18 86.97 L198.51 91.23 Q200 96 200.51 100.97 L200.65 102.36 Q201.17 107.33 202.95 112.01 L215.05 143.83 Q216.83 148.5 218.44 153.23 L231.16 190.66 Q231.5 191.67 230.67 192.33 L230.67 192.33 Q229.83 193 228.77 193 L161.32 192.84 Q160.5 192.83 159.92 192.25 L159.92 192.25 Q159.33 191.67 159.62 190.89 L187.92 115.02 Q189.67 110.33 190.6 105.42 L193.68 89.19 Q194 87.5 195.33 86.42 Z" fill="#FBFAF7" fill-rule="evenodd"/></svg>